<svg xmlns="http://www.w3.org/2000/svg" xmlns:xlink="http://www.w3.org/1999/xlink" style="margin:auto;background:rgba(255, 255, 255, 0);display:block;z-index:1;position:relative" preserveAspectRatio="xMidYMid" viewBox="0 0 1920 1080">
    <g transform="translate(960,540) scale(1,1) translate(-960,-540)">
        <g transform="translate(1654.907176293903,213.00150407802414) scale(100)" opacity="0.35">
            <path d="M6.8351999999999995 0 C6.8351999999999995 1.92 8.513636184200255 1.968911872856715 7.6805794050945435 3.69877209922936 S5.762793940003433 4.146874129396709 4.261677493664815 5.343974548965477 S3.7688080491798908 7.883825272571487 1.8969464577907895 8.31106546576761 S0.3508865036109017 7.091067458541324 -1.5209750877781996 6.6638272653452 S-3.814009416546714 7.86205744131223 -5.315125862885331 6.664957021743462 S-5.3252456267809025 4.695542359988979 -6.158302405886614 2.9656821336163337 S-8.5248 1.920000000000001 -8.5248 1.0439869033371358e-15 S-6.9913591849923264 -1.2358219072436876 -6.158302405886615 -2.9656821336163324 S-6.81624230922395 -5.467856602174692 -5.315125862885334 -6.664957021743461 S-3.392836679167303 -6.236587072149076 -1.5209750877782013 -6.6638272653452 S0.0250848664016865 -8.738305658963734 1.8969464577907877 -8.31106546576761 S2.7605610473261963 -6.541074968534246 4.261677493664814 -5.343974548965478 S6.84752262598883 -5.428632325602006 7.680579405094543 -3.6987720992293616 S6.835199999999999 -1.9200000000000017 6.8351999999999995 -1.6741411603063975e-15" fill="var(--accent)" stroke-width="0">
                <animateTransform attributeName="transform" type="rotate" dur="150s" repeatCount="indefinite" values="0;51.42857142857143" />
            </path>
        </g>
        <g transform="translate(1793.8886115526834,147.60180489362904) scale(100)" opacity="0.35">
            <path d="M8.20224 0 C8.20224 2.304 10.216363421040306 2.3626942474280574 9.216695286113453 4.438526519075231 S6.91535272800412 4.97624895527605 5.114012992397779 6.412769458758572 S4.522569659015868 9.460590327085784 2.2763357493489473 9.973278558921132 S0.4210638043330819 8.50928095024959 -1.8251701053338396 7.996592718414241 S-4.5768112998560575 9.434468929574676 -6.378151035462398 7.9979484260921545 S-6.390294752137083 5.634650831986773 -7.389962887063938 3.5588185603396005 S-10.22976 2.304000000000001 -10.22976 1.2527842840045629e-15 S-8.389631021990793 -1.482986288692425 -7.3899628870639384 -3.5588185603395988 S-8.17949077106874 -6.56142792260963 -6.3781510354624 -7.997948426092152 S-4.071404015000763 -7.483904486578892 -1.8251701053338416 -7.996592718414241 S0.030101839682023623 -10.48596679075648 2.276335749348945 -9.973278558921132 S3.3126732567914363 -7.8492899622410945 5.114012992397777 -6.412769458758573 S8.217027151186596 -6.514358790722407 9.21669528611345 -4.438526519075234 S8.20224 -2.304000000000002 8.20224 -2.0089693923676774e-15" fill="var(--accent)" stroke-width="0">
                <animateTransform attributeName="transform" type="rotate" dur="120s" repeatCount="indefinite" values="0;51.42857142857143" />
            </path>
        </g>
        <g transform="translate(2127.4440561737565,-9.357473148919325) scale(100)" opacity="0.35">
            <path d="M11.483135999999998 0 C11.483135999999998 3.2255999999999996 14.302908789456428 3.3077719463992814 12.903373400558833 6.213937126705324 S9.681493819205766 6.9667485373864695 7.159618189356889 8.977877242262 S6.331597522622216 13.244826457920096 3.1868700490885264 13.962589982489584 S0.5894893260663143 11.912993330349424 -2.5552381474673753 11.195229805779936 S-6.407535819798479 13.208256501404545 -8.929411449647356 11.197127796529015 S-8.946412652991915 7.888511164781483 -10.34594804188951 4.98234598447544 S-14.321664 3.2256000000000014 -14.321664 1.7538979976063879e-15 S-11.745483430787107 -2.076180804169395 -10.345948041889512 -4.982345984475438 S-11.451287079496236 -9.18599909165348 -8.92941144964736 -11.197127796529012 S-5.699965621001068 -10.477466281210448 -2.555238147467378 -11.195229805779936 S0.04214257555483325 -14.68035350705907 3.186870049088523 -13.962589982489584 S4.637742559508009 -10.989005947137532 7.159618189356887 -8.977877242262002 S11.503838011661234 -9.120102307011368 12.90337340055883 -6.213937126705327 S11.483135999999998 -3.2256000000000022 11.483135999999998 -2.812557149314748e-15" fill="var(--accent)" stroke-width="0">
                <animateTransform attributeName="transform" type="rotate" dur="90s" repeatCount="indefinite" values="0;51.42857142857143" />
            </path>
        </g>
    </g>
</svg>